<?xml version="1.0" encoding="UTF-8"?>
<svg width="46px" height="54px" viewBox="0 0 46 54" version="1.1" xmlns="http://www.w3.org/2000/svg" xmlns:xlink="http://www.w3.org/1999/xlink">
    <!-- Generator: Sketch 43.2 (39069) - http://www.bohemiancoding.com/sketch -->
    <title>Logo Copy</title>
    <desc>Created with Sketch.</desc>
    <defs></defs>
    <g id="Article-pages" stroke="none" stroke-width="1" fill="none" fill-rule="evenodd">
        <g id="Desktop-HD" transform="translate(-58.000000, -12.000000)">
            <g id="Top-Bar">
                <g id="Logo" transform="translate(60.000000, 14.000000)">
                    <g id="Group-2">
                        <g>
                            <g id="Group">
                                <polygon id="Polygon" stroke="#000000" stroke-width="3" fill="#FFFFFF" points="21 0 41.9844617 12.5 41.9844617 37.5 21 50 0.0155382929 37.5 0.0155382929 12.5"></polygon>
                                <g id="study" transform="translate(8.017557, 12.152134)" fill-rule="nonzero" fill="#000000">
                                    <path d="M24.4838789,13.7304546 L24.4838789,11.3425582 C24.4838789,10.9268093 24.1427293,10.5897535 23.7219308,10.5897535 C22.1478478,10.5897535 20.6803359,10.7209925 19.2938445,10.9889909 C18.4856209,10.217868 17.5003205,9.65838358 16.4333393,9.35259432 C17.5967831,8.38513994 18.3374982,6.93659319 18.3374982,5.32012081 C18.3374982,2.38674212 15.944829,0.000301121869 13.0038621,0.000301121869 C10.0628951,0.000301121869 7.67022592,2.38674212 7.67022592,5.32012081 C7.67022592,6.93659319 8.41094099,8.38513994 9.57443561,9.35254414 C8.5074544,9.65838358 7.52215402,10.217868 6.71393036,10.9889407 C5.32743895,10.7209925 3.85992707,10.5897033 2.28584406,10.5897033 C1.86504556,10.5897033 1.52389604,10.9267591 1.52389604,11.342508 L1.52389604,13.7304044 C0.63703934,14.0411622 0,14.8779297 0,15.859336 L0,17.3649454 C0,18.3463518 0.63703934,19.1831192 1.52389604,19.493877 L1.52389604,21.8817734 C1.52389604,22.2975224 1.86504556,22.6345781 2.28584406,22.6345781 C6.26976546,22.6345781 9.54121468,23.5672027 12.5812857,25.5695628 C12.8360303,25.7372877 13.1715922,25.7376892 13.4265908,25.5695628 C16.4666618,23.5672027 19.7380602,22.6345781 23.7220324,22.6345781 C24.1428309,22.6345781 24.4839805,22.2975224 24.4839805,21.8817734 L24.4839805,19.493877 C25.3708372,19.1831192 26.0078765,18.3463518 26.0078765,17.3649454 L26.0078765,15.859336 C26.0077749,14.8779799 25.3707356,14.0412124 24.4838789,13.7304546 Z M9.19412196,5.32012081 C9.19412196,3.21693512 10.9031714,1.50591047 13.0038621,1.50591047 C15.1045527,1.50591047 16.8136021,3.21693512 16.8136021,5.32012081 C16.8136021,7.39560329 15.1045527,9.08414418 13.0038621,9.08414418 C10.9031714,9.08414418 9.19412196,7.39560329 9.19412196,5.32012081 Z M2.28579326,18.1178003 C1.86565512,18.1178003 1.52384524,17.7800921 1.52384524,17.3649956 L1.52384524,15.8593862 C1.52384524,15.4442897 1.86565512,15.1065816 2.28579326,15.1065816 C2.7059314,15.1065816 3.04774128,15.4442897 3.04774128,15.8593862 L3.04774128,17.3649956 C3.04774128,17.7800921 2.7059314,18.1178003 2.28579326,18.1178003 Z M12.241914,23.5924468 C9.47589034,22.0295741 6.50769643,21.2396812 3.04774128,21.1398593 L3.04774128,19.4939272 C3.93459797,19.1831694 4.57163731,18.3464019 4.57163731,17.3649956 L4.57163731,15.8593862 C4.57163731,14.8779799 3.93459797,14.0412124 3.04774128,13.7304546 L3.04774128,12.1060025 C6.62793183,12.2075308 9.5057079,13.040484 12.241914,14.7616966 L12.241914,23.5924468 Z M13.0038621,13.4573873 C11.5975092,12.5806709 10.1336547,11.913134 8.57095007,11.4440363 C9.42961469,10.8926821 10.4404149,10.5897535 11.479966,10.5897535 L14.5277581,10.5897535 C15.5673092,10.5897535 16.5781094,10.8926821 17.436774,11.4440363 C15.8740694,11.913134 14.4101641,12.5806709 13.0038621,13.4573873 Z M22.9599828,21.1398593 C19.5000785,21.2396812 16.531783,22.0297748 13.7658101,23.5925471 L13.7658101,14.7622989 C16.502067,13.0409357 19.3796399,12.2074806 22.9599828,12.1060025 L22.9599828,13.7304546 C22.0731261,14.0412124 21.4360868,14.8779799 21.4360868,15.8593862 L21.4360868,17.3649956 C21.4360868,18.3464019 22.0731261,19.1831694 22.9599828,19.4939272 L22.9599828,21.1398593 Z M24.4838789,17.3649956 C24.4838789,17.7800921 24.142069,18.1178003 23.7219308,18.1178003 C23.3017927,18.1178003 22.9599828,17.7800921 22.9599828,17.3649956 L22.9599828,15.8593862 C22.9599828,15.4442897 23.3017927,15.1065816 23.7219308,15.1065816 C24.142069,15.1065816 24.4838789,15.4442897 24.4838789,15.8593862 L24.4838789,17.3649956 Z" id="Shape"></path>
                                </g>
                            </g>
                        </g>
                    </g>
                </g>
            </g>
        </g>
    </g>
</svg>